<svg width="30" height="30" viewBox="0 0 30 30" fill="none" xmlns="http://www.w3.org/2000/svg">
<g style="mix-blend-mode:difference">
<g style="mix-blend-mode:difference">
<path fill-rule="evenodd" clip-rule="evenodd" d="M26.352 3.4619C30.5966 7.70635 30.5964 14.5879 26.352 18.8324C26.1694 19.0151 25.9818 19.1899 25.7898 19.3569L15.3833 29.7633L13.5683 27.9483L19.5356 21.9812C16.874 22.1933 14.1493 21.4289 11.9435 19.6881L6.03637 25.5951L4.22141 23.7802L10.1282 17.8733C8.40562 15.6922 7.63819 13.0034 7.82588 10.3698L1.90822 16.2874L0.0932617 14.4724L10.0687 4.49707C10.3473 4.13773 10.6516 3.79185 10.9816 3.4619C15.226 -0.782547 22.1076 -0.782547 26.352 3.4619ZM24.297 17.2196C21.0494 20.2349 15.9712 20.1625 12.8114 17.0027C9.82799 14.0193 9.59691 9.32582 12.1182 6.07753L13.4219 4.77374L13.3951 4.76045C16.6482 2.06887 21.4765 2.24599 24.5223 5.29179C27.6821 8.45164 27.7544 13.5299 24.7392 16.7775L24.297 17.2196Z" fill="white"/>
</g>
</g>
</svg>
